<svg width="159" height="48" viewBox="0 0 159 48" fill="none" xmlns="http://www.w3.org/2000/svg">
<path d="M25.8994 10.9813C24.6562 10.9813 23.6202 12.0172 23.6202 13.2604V16.9209C21.6173 12.846 17.7497 10.3597 13.0533 10.3597C9.32377 10.3597 6.21585 11.6719 3.72951 14.2273C1.24317 16.7827 0 20.0288 0 23.8964C0 27.7641 1.24317 30.941 3.72951 33.5655C6.21585 36.1209 9.32377 37.4332 13.0533 37.4332C15.4015 37.4332 17.4734 36.8806 19.3382 35.6375C21.203 34.4634 22.5843 32.8749 23.6202 30.872V34.5324C23.6202 36.8116 22.7914 38.6073 21.1339 40.0576C19.4763 41.4389 17.3353 42.1296 14.5727 42.1296C11.1885 42.1296 8.35686 41.0245 6.83743 39.1598C6.35398 38.6073 5.66333 38.331 4.97268 38.331C3.10792 38.331 2.00289 40.3339 2.9698 41.9915C3.79858 43.3728 4.83455 44.4778 6.14678 45.4447C8.49499 47.1713 11.3267 48.0001 14.6418 48.0001C18.7166 48.0001 22.0317 46.7569 24.5181 44.3397C27.0044 41.8533 28.2476 38.6763 28.2476 34.6015V13.2604C28.1785 12.0172 27.1425 10.9813 25.8994 10.9813ZM20.9267 29.3526C19.131 30.872 16.9209 31.5626 14.1583 31.5626C11.3957 31.5626 9.18564 30.8029 7.45902 29.3526C5.66333 27.9022 4.76548 26.0374 4.76548 23.8964C4.76548 21.6863 5.66333 19.8216 7.45902 18.3712C9.25471 16.9209 11.4648 16.1611 14.1583 16.1611C16.8519 16.1611 19.131 16.9209 20.9267 18.3712C22.7224 19.8216 23.6202 21.6863 23.6202 23.8964C23.5512 26.1065 22.7224 27.9022 20.9267 29.3526Z" fill="#70BE54"/>
<path d="M44.1327 10.3597C40.0578 10.3597 36.6736 11.6719 33.9801 14.2964C31.2866 16.9899 29.9053 20.236 29.9053 24.1727C29.9053 28.1094 31.2175 31.4245 33.9801 34.118C36.6736 36.8116 40.0578 38.1238 44.1327 38.1238C48.1384 38.1238 51.5226 36.8116 54.2852 34.118C56.9788 31.4245 58.3601 28.1784 58.3601 24.1727C58.3601 20.236 57.0478 16.9209 54.2852 14.2964C51.5917 11.6719 48.2075 10.3597 44.1327 10.3597ZM50.901 29.7669C49.1053 31.2173 46.8953 31.977 44.2017 31.977C41.5082 31.977 39.229 31.2173 37.5024 29.7669C35.7067 28.3166 34.8089 26.4518 34.8089 24.2417C34.8089 22.0317 35.7067 20.1669 37.5024 18.7165C39.2981 17.2662 41.5082 16.5065 44.2017 16.5065C46.8953 16.5065 49.1744 17.2662 50.901 18.7165C52.6967 20.1669 53.5946 22.0317 53.5946 24.2417C53.5946 26.4518 52.6277 28.3166 50.901 29.7669Z" fill="#70BE54"/>
<path d="M66.993 5.93959C67.7527 6.56117 68.7886 6.9065 69.9627 6.9065C71.1369 6.9065 72.1728 6.56117 72.9325 5.93959C73.6923 5.318 74.1066 4.48922 74.1066 3.45325C74.1066 2.48634 73.6923 1.65756 72.9325 0.96691C72.1728 0.345325 71.1369 0 69.9627 0C68.7886 0 67.7527 0.345325 66.993 0.96691C66.1642 1.58849 65.8188 2.41727 65.8188 3.45325C65.8188 4.48922 66.2332 5.318 66.993 5.93959Z" fill="#70BE54"/>
<path d="M87.6434 5.93959C88.4032 6.56117 89.4391 6.9065 90.6132 6.9065C91.7873 6.9065 92.8233 6.56117 93.583 5.93959C94.3428 5.318 94.7571 4.48922 94.7571 3.45325C94.7571 2.48634 94.3428 1.65756 93.583 0.96691C92.8233 0.345325 91.7873 0 90.6132 0C89.4391 0 88.4032 0.345325 87.6434 0.96691C86.8147 1.58849 86.4693 2.41727 86.4693 3.45325C86.4003 4.48922 86.8147 5.318 87.6434 5.93959Z" fill="#70BE54"/>
<path d="M117.549 10.3602C115.201 10.3602 113.129 10.9818 111.264 12.1559C109.399 13.399 108.018 14.9875 106.982 17.1285V2.34863C106.982 1.10546 105.946 0.0694885 104.703 0.0694885C103.46 0.0694885 102.424 1.10546 102.424 2.34863V35.1545C102.424 36.3977 103.46 37.4337 104.703 37.4337C105.946 37.4337 106.982 36.3977 106.982 35.1545V31.3559C108.985 35.4998 112.853 38.1243 117.549 38.1243C121.279 38.1243 124.317 36.8121 126.873 34.1185C129.359 31.425 130.602 28.1789 130.602 24.1732C130.602 20.2365 129.359 16.9213 126.873 14.2969C124.317 11.6724 121.21 10.3602 117.549 10.3602ZM123.143 29.7674C121.348 31.2178 119.138 31.9775 116.375 31.9775C113.681 31.9775 111.402 31.2178 109.676 29.7674C107.88 28.3171 106.982 26.4523 106.982 24.2422C106.982 22.0322 107.88 20.1674 109.676 18.717C111.471 17.2667 113.681 16.507 116.375 16.507C119.068 16.507 121.348 17.2667 123.143 18.717C124.939 20.1674 125.837 22.0322 125.837 24.2422C125.837 26.4523 124.87 28.3171 123.143 29.7674Z" fill="#70BE54"/>
<path d="M82.6011 28.3166C82.9464 28.1094 83.3608 27.9022 83.8442 27.7641C85.2255 27.2806 87.3666 26.8662 90.2673 26.5209C93.3752 26.1065 95.8616 25.2777 97.7263 23.9655C99.5911 22.6532 100.558 20.8576 100.558 18.5093C100.558 16.023 99.4529 14.0201 97.3119 12.5698C95.1709 11.1194 92.4083 10.3597 89.1623 10.3597C85.8471 10.3597 83.0845 11.1885 80.8744 12.846C80.5291 13.1223 80.2529 13.3985 79.9075 13.6748C79.6313 13.3985 79.286 13.1223 79.0097 12.846C76.7996 11.1885 74.037 10.3597 70.7219 10.3597C67.4758 10.3597 64.7132 11.1194 62.5722 12.5698C60.4312 14.0201 59.3262 16.023 59.3262 18.5093C59.3262 20.7885 60.2931 22.5842 62.1578 23.9655C64.0226 25.2777 66.5089 26.1756 69.6169 26.5209C72.5176 26.9353 74.6586 27.2806 76.0399 27.7641C76.5234 27.9022 76.9377 28.1094 77.2831 28.3166C77.8356 28.6619 78.1118 29.1454 78.1118 29.6288C78.1118 30.1123 77.8356 30.5957 77.2831 31.0101C77.0068 31.2173 76.5924 31.4245 76.109 31.5626C74.7277 32.1152 73.001 32.3223 70.86 32.3223C68.719 32.3223 66.9233 31.977 65.542 31.3554C64.7132 31.0101 64.1607 30.5267 63.8154 30.0432C63.401 29.3526 62.6413 28.9382 61.8125 28.9382C60.0859 28.9382 58.9118 30.7339 59.6715 32.3223C60.224 33.4965 61.1219 34.5324 62.296 35.4993C64.5751 37.295 67.4068 38.1929 70.791 38.1929C74.2442 38.1929 77.0759 37.4332 79.355 35.9137C79.5622 35.7756 79.7694 35.6375 79.9075 35.4993C80.1147 35.6375 80.2529 35.7756 80.4601 35.9137C82.7392 37.4332 85.5709 38.1929 89.0241 38.1929C92.4774 38.1929 95.309 37.295 97.5191 35.4993C98.6932 34.5324 99.5911 33.4965 100.144 32.3223C100.903 30.7339 99.7292 28.9382 98.0026 28.9382C97.1738 28.9382 96.4141 29.3526 95.9997 30.0432C95.6544 30.5267 95.1018 31.0101 94.2731 31.3554C92.8918 31.977 91.0961 32.3223 88.9551 32.3223C86.814 32.3223 85.0183 32.0461 83.7061 31.5626C83.2227 31.3554 82.8773 31.2173 82.532 31.0101C81.9795 30.5957 81.7032 30.1813 81.7032 29.6288C81.7723 29.0763 82.0486 28.6619 82.6011 28.3166ZM79.9075 24.2417C78.1809 22.9986 75.6255 22.1698 72.2413 21.6863C66.5089 20.9266 63.9535 20.0978 63.9535 18.6475C63.9535 17.8878 64.5751 17.2662 65.8873 16.7827C67.1305 16.2993 68.7881 16.0921 70.7219 16.0921C72.1032 16.0921 73.2773 16.2302 74.3133 16.5065C75.7636 16.8518 76.8687 17.2662 77.7665 17.6806C79.286 18.4403 79.9075 19.1309 79.9075 19.1309C79.9075 19.1309 80.5291 18.4403 82.0486 17.6806C82.8773 17.2662 84.0514 16.8518 85.5018 16.5065C85.5018 16.5065 85.5018 16.5065 85.5709 16.5065C86.6068 16.2302 87.781 16.0921 89.1623 16.0921C91.1651 16.0921 92.7536 16.2993 93.9968 16.7827C95.24 17.2662 95.9306 17.8878 95.9306 18.6475C95.9306 20.0978 93.3752 20.9266 87.6428 21.6863C84.2586 22.1698 81.7032 22.9986 79.9075 24.2417Z" fill="#70BE54"/>
<path d="M156.57 10.5669C155.258 10.4979 154.153 11.5338 154.153 12.8461V23.2058V24.5181C154.153 24.5871 154.153 24.6562 154.153 24.7943C154.153 25.0015 154.084 25.1396 154.084 25.2778V25.3468C154.015 25.554 154.015 25.7612 153.946 25.9684C153.877 26.1756 153.808 26.3828 153.739 26.5209V26.59C153.669 26.7281 153.6 26.8663 153.531 27.0044C153.462 27.0735 153.462 27.2116 153.393 27.2807C152.979 28.0404 152.357 28.731 151.598 29.3526C151.321 29.5598 151.114 29.767 150.838 29.9051C150.769 29.9051 150.769 29.9742 150.7 29.9742C150.147 30.3195 149.595 30.5958 149.042 30.803C147.316 31.3555 145.451 31.2174 144.691 31.0792C142.895 30.803 141.307 30.1123 139.995 29.0073C138.199 27.4878 137.301 25.6922 137.301 23.4821V12.9842C137.301 12.6389 137.232 12.3626 137.094 12.0864C136.956 11.8101 136.818 11.5338 136.541 11.3266C136.127 10.9122 135.505 10.636 134.815 10.636C133.503 10.636 132.397 11.741 132.397 13.0533V23.5511C132.397 27.4188 133.641 30.6648 136.127 33.2893C136.472 33.6346 136.818 33.98 137.163 34.2562C137.923 34.9469 138.821 35.4994 139.718 35.9138C144.691 37.9857 148.213 36.6044 149.595 35.8447C149.664 35.7756 149.802 35.7066 149.871 35.6375C150.009 35.5685 150.147 35.4303 150.285 35.3613C151.943 34.2562 153.255 32.7368 154.153 30.872V34.5325C154.153 36.8116 153.324 38.6073 151.667 40.0577C150.009 41.439 147.868 42.1296 145.105 42.1296C141.721 42.1296 138.89 41.0246 137.37 39.1598C136.887 38.6073 136.196 38.3311 135.505 38.3311C133.641 38.3311 132.536 40.3339 133.503 41.9224C133.779 42.4059 134.055 42.8203 134.4 43.2347C135.022 43.9944 135.713 44.616 136.541 45.2376C138.89 46.9642 141.721 47.793 145.105 47.793C148.766 47.793 151.805 46.826 154.153 44.8922C154.429 44.616 154.705 44.4088 155.051 44.1325C157.537 41.6462 158.78 38.4001 158.78 34.3253V12.9842C158.711 11.741 157.813 10.636 156.57 10.5669Z" fill="#70BE54"/>
</svg>
